# xmcd
#
# Track frame offsets:
#	150
#	10485
#	24966
#	37438
#	69935
#	96894
#	110651
#	122358
#	138377
#	150594
#
# Disc length: 2191
#
# Revision: 5
# Processed by: cddbd v1.5.1PL0 Copyright (c) Steve Scherf et al.
# Submitted via: FreeRIP 2.92 
# Normalized: r4:TDELIM( - )
#
DISCID=7f088d0a
DTITLE=Various Artist - Blues Greatest
DYEAR=1996
DGENRE=Blues
TTITLE0=Albert Collins - Don't Lose Your Cool
TTITLE1=Lowell Fulson - Reconsider Baby
TTITLE2=John Lee Hooker - I'm In The Mood
TTITLE3=Buddy Guy - Stone Crazy
TTITLE4=B. B. King - Philadelphia
TTITLE5=Koko Taylor - Wang Dang Doodle
TTITLE6=Irma Thomas - Good To Me
TTITLE7=Bobby Bland - Do What You Set Out To Do
TTITLE8=Little Milton - We're Gonna Make It
TTITLE9=Willie Dixon - Walking The Blues
EXTD=
EXTT0=
EXTT1=
EXTT2=
EXTT3=
EXTT4=
EXTT5=
EXTT6=
EXTT7=
EXTT8=
EXTT9=
PLAYORDER=
